<svg width="193" height="24" viewBox="0 0 193 24" fill="none" xmlns="http://www.w3.org/2000/svg">
<path d="M1.38283e-05 23.5909V0.318184H8.72729C10.5152 0.318184 12.0152 0.62879 13.2273 1.25C14.447 1.87121 15.3674 2.74243 15.9887 3.86364C16.6174 4.97728 16.9318 6.27652 16.9318 7.76137C16.9318 9.25379 16.6137 10.5492 15.9773 11.6477C15.3485 12.7386 14.4205 13.5833 13.1932 14.1818C11.9659 14.7727 10.4583 15.0682 8.67047 15.0682H2.45456V11.5682H8.10229C9.14774 11.5682 10.0038 11.4242 10.6705 11.1364C11.3371 10.8409 11.8296 10.4129 12.1477 9.85227C12.4735 9.28409 12.6364 8.58712 12.6364 7.76137C12.6364 6.93561 12.4735 6.23106 12.1477 5.64773C11.822 5.05682 11.3258 4.60985 10.6591 4.30682C9.99244 3.99621 9.13259 3.84091 8.07956 3.84091H4.21592V23.5909H1.38283e-05ZM12.0227 13.0455L17.7841 23.5909H13.0796L7.42047 13.0455H12.0227ZM27.9943 23.9318C26.2898 23.9318 24.8125 23.5568 23.5625 22.8068C22.3125 22.0568 21.3428 21.0076 20.6534 19.6591C19.9716 18.3106 19.6307 16.7349 19.6307 14.9318C19.6307 13.1288 19.9716 11.5492 20.6534 10.1932C21.3428 8.83712 22.3125 7.78409 23.5625 7.03409C24.8125 6.28409 26.2898 5.90909 27.9943 5.90909C29.6989 5.90909 31.1762 6.28409 32.4262 7.03409C33.6762 7.78409 34.6421 8.83712 35.3239 10.1932C36.0133 11.5492 36.358 13.1288 36.358 14.9318C36.358 16.7349 36.0133 18.3106 35.3239 19.6591C34.6421 21.0076 33.6762 22.0568 32.4262 22.8068C31.1762 23.5568 29.6989 23.9318 27.9943 23.9318ZM28.0171 20.6364C28.9413 20.6364 29.714 20.3826 30.3352 19.875C30.9565 19.3599 31.4186 18.6705 31.7216 17.8068C32.0322 16.9432 32.1875 15.9811 32.1875 14.9205C32.1875 13.8523 32.0322 12.8864 31.7216 12.0227C31.4186 11.1515 30.9565 10.4583 30.3352 9.94318C29.714 9.42803 28.9413 9.17046 28.0171 9.17046C27.0701 9.17046 26.2822 9.42803 25.6534 9.94318C25.0322 10.4583 24.5663 11.1515 24.2557 12.0227C23.9527 12.8864 23.8012 13.8523 23.8012 14.9205C23.8012 15.9811 23.9527 16.9432 24.2557 17.8068C24.5663 18.6705 25.0322 19.3599 25.6534 19.875C26.2822 20.3826 27.0701 20.6364 28.0171 20.6364ZM43.9631 13.3636V23.5909H39.8494V0.318184H43.8722V9.10227H44.0767C44.4858 8.11743 45.1184 7.34091 45.9744 6.77273C46.8381 6.19697 47.9366 5.90909 49.2699 5.90909C50.482 5.90909 51.5388 6.16288 52.4404 6.67046C53.3419 7.17803 54.0388 7.92046 54.5313 8.89773C55.0313 9.875 55.2813 11.0682 55.2813 12.4773V23.5909H51.1676V13.1136C51.1676 11.9394 50.8646 11.0265 50.2585 10.375C49.6601 9.71591 48.8191 9.38637 47.7358 9.38637C47.0085 9.38637 46.357 9.54546 45.7813 9.86364C45.2131 10.1742 44.7661 10.625 44.4404 11.2159C44.1222 11.8068 43.9631 12.5227 43.9631 13.3636ZM64.4972 23.9432C63.3911 23.9432 62.3949 23.7462 61.5085 23.3523C60.6297 22.9508 59.9328 22.3599 59.4176 21.5795C58.9101 20.7992 58.6563 19.8371 58.6563 18.6932C58.6563 17.7083 58.8381 16.8939 59.2017 16.25C59.5654 15.6061 60.0616 15.0909 60.6904 14.7045C61.3191 14.3182 62.0275 14.0265 62.8154 13.8295C63.6108 13.625 64.4328 13.4773 65.2813 13.3864C66.304 13.2803 67.1335 13.1856 67.7699 13.1023C68.4063 13.0114 68.8684 12.875 69.1563 12.6932C69.4517 12.5038 69.5994 12.2121 69.5994 11.8182V11.75C69.5994 10.8939 69.3457 10.2311 68.8381 9.76137C68.3305 9.29167 67.5994 9.05682 66.6449 9.05682C65.6373 9.05682 64.8381 9.27652 64.2472 9.71591C63.6638 10.1553 63.2699 10.6742 63.0654 11.2727L59.2244 10.7273C59.5275 9.66667 60.0275 8.78031 60.7244 8.06818C61.4214 7.34849 62.2737 6.81061 63.2813 6.45455C64.2888 6.09091 65.4025 5.90909 66.6222 5.90909C67.4631 5.90909 68.3002 6.00758 69.1335 6.20455C69.9669 6.40152 70.7282 6.72727 71.4176 7.18182C72.107 7.62879 72.6601 8.23864 73.0767 9.01137C73.501 9.78409 73.7131 10.75 73.7131 11.9091V23.5909H69.7585V21.1932H69.6222C69.3722 21.678 69.0199 22.1326 68.5654 22.5568C68.1184 22.9735 67.554 23.3106 66.8722 23.5682C66.1979 23.8182 65.4063 23.9432 64.4972 23.9432ZM65.5654 20.9205C66.3911 20.9205 67.107 20.7576 67.7131 20.4318C68.3191 20.0985 68.7851 19.6591 69.1108 19.1136C69.4441 18.5682 69.6108 17.9735 69.6108 17.3295V15.2727C69.482 15.3788 69.2623 15.4773 68.9517 15.5682C68.6487 15.6591 68.3078 15.7386 67.929 15.8068C67.5502 15.875 67.1752 15.9356 66.804 15.9886C66.4328 16.0417 66.1108 16.0871 65.8381 16.125C65.2244 16.2083 64.6752 16.3447 64.1904 16.5341C63.7055 16.7235 63.3229 16.9886 63.0426 17.3295C62.7623 17.6629 62.6222 18.0947 62.6222 18.625C62.6222 19.3826 62.8987 19.9545 63.4517 20.3409C64.0047 20.7273 64.7093 20.9205 65.5654 20.9205ZM81.9631 13.3636V23.5909H77.8494V6.13637H81.7813V9.10227H81.9858C82.3873 8.125 83.0275 7.34849 83.9063 6.77273C84.7926 6.19697 85.8873 5.90909 87.1904 5.90909C88.3949 5.90909 89.4441 6.16667 90.3381 6.68182C91.2396 7.19697 91.9366 7.94318 92.429 8.92046C92.929 9.89773 93.1752 11.0833 93.1676 12.4773V23.5909H89.054V13.1136C89.054 11.947 88.751 11.0341 88.1449 10.375C87.5464 9.71591 86.7169 9.38637 85.6563 9.38637C84.9366 9.38637 84.2964 9.54546 83.7358 9.86364C83.1828 10.1742 82.7472 10.625 82.429 11.2159C82.1184 11.8068 81.9631 12.5227 81.9631 13.3636ZM118.116 6.71591C118.01 5.72349 117.563 4.95076 116.776 4.39773C115.995 3.8447 114.98 3.56818 113.73 3.56818C112.851 3.56818 112.098 3.70076 111.469 3.96591C110.84 4.23106 110.359 4.59091 110.026 5.04546C109.692 5.5 109.522 6.01894 109.514 6.60228C109.514 7.08712 109.624 7.50758 109.844 7.86364C110.071 8.2197 110.378 8.52273 110.764 8.77273C111.151 9.01515 111.579 9.2197 112.048 9.38637C112.518 9.55303 112.991 9.69318 113.469 9.80682L115.651 10.3523C116.529 10.5568 117.374 10.8333 118.185 11.1818C119.003 11.5303 119.734 11.9697 120.378 12.5C121.029 13.0303 121.545 13.6705 121.923 14.4205C122.302 15.1705 122.491 16.0492 122.491 17.0568C122.491 18.4205 122.143 19.6212 121.446 20.6591C120.749 21.6894 119.741 22.4962 118.423 23.0795C117.113 23.6553 115.526 23.9432 113.662 23.9432C111.851 23.9432 110.279 23.6629 108.946 23.1023C107.62 22.5417 106.582 21.7235 105.832 20.6477C105.09 19.572 104.688 18.2614 104.628 16.7159H108.776C108.836 17.5265 109.086 18.2008 109.526 18.7386C109.965 19.2765 110.537 19.678 111.241 19.9432C111.954 20.2083 112.749 20.3409 113.628 20.3409C114.545 20.3409 115.348 20.2045 116.037 19.9318C116.734 19.6515 117.279 19.2652 117.673 18.7727C118.067 18.2727 118.268 17.6894 118.276 17.0227C118.268 16.4167 118.09 15.9167 117.741 15.5227C117.393 15.1212 116.904 14.7879 116.276 14.5227C115.654 14.25 114.927 14.0076 114.094 13.7955L111.446 13.1136C109.529 12.6212 108.014 11.875 106.901 10.875C105.795 9.86743 105.241 8.53031 105.241 6.86364C105.241 5.49243 105.613 4.29167 106.355 3.26137C107.105 2.23106 108.124 1.43182 109.412 0.863638C110.7 0.287881 112.158 1.90735e-06 113.787 1.90735e-06C115.438 1.90735e-06 116.885 0.287881 118.128 0.863638C119.378 1.43182 120.359 2.22349 121.071 3.23864C121.783 4.24621 122.151 5.40531 122.173 6.71591H118.116ZM137.193 16.25V6.13637H141.307V23.5909H137.318V20.4886H137.136C136.742 21.4659 136.095 22.2652 135.193 22.8864C134.299 23.5076 133.197 23.8182 131.886 23.8182C130.742 23.8182 129.731 23.5644 128.852 23.0568C127.981 22.5417 127.299 21.7955 126.807 20.8182C126.314 19.8333 126.068 18.6439 126.068 17.25V6.13637H130.182V16.6136C130.182 17.7197 130.485 18.5985 131.091 19.25C131.697 19.9015 132.492 20.2273 133.477 20.2273C134.083 20.2273 134.67 20.0795 135.239 19.7841C135.807 19.4886 136.273 19.0492 136.636 18.4659C137.008 17.875 137.193 17.1364 137.193 16.25ZM145.537 23.5909V6.13637H149.526V9.04546H149.707C150.026 8.03788 150.571 7.26137 151.344 6.71591C152.124 6.16288 153.014 5.88637 154.014 5.88637C154.241 5.88637 154.495 5.89773 154.776 5.92046C155.063 5.93561 155.302 5.96212 155.491 6V9.78409C155.317 9.72349 155.041 9.67046 154.662 9.625C154.291 9.57197 153.931 9.54546 153.582 9.54546C152.832 9.54546 152.158 9.70834 151.56 10.0341C150.969 10.3523 150.503 10.7955 150.162 11.3636C149.821 11.9318 149.651 12.5871 149.651 13.3295V23.5909H145.537ZM174.347 6.13637L168.131 23.5909H163.585L157.369 6.13637H161.756L165.767 19.1023H165.949L169.972 6.13637H174.347ZM184.327 23.9318C182.577 23.9318 181.065 23.5682 179.793 22.8409C178.527 22.1061 177.554 21.0682 176.872 19.7273C176.19 18.3788 175.849 16.7917 175.849 14.9659C175.849 13.1705 176.19 11.5947 176.872 10.2386C177.562 8.875 178.524 7.8144 179.759 7.05682C180.993 6.29167 182.444 5.90909 184.111 5.90909C185.187 5.90909 186.202 6.08334 187.156 6.43182C188.118 6.77273 188.967 7.30303 189.702 8.02273C190.444 8.74243 191.027 9.65909 191.452 10.7727C191.876 11.8788 192.088 13.197 192.088 14.7273V15.9886H177.781V13.2159H188.145C188.137 12.428 187.967 11.7273 187.634 11.1136C187.3 10.4924 186.834 10.0038 186.236 9.64773C185.645 9.29167 184.956 9.11364 184.168 9.11364C183.327 9.11364 182.588 9.31818 181.952 9.72727C181.315 10.1288 180.819 10.6591 180.463 11.3182C180.115 11.9697 179.937 12.6856 179.929 13.4659V15.8864C179.929 16.9015 180.115 17.7727 180.486 18.5C180.857 19.2197 181.376 19.7727 182.043 20.1591C182.709 20.5379 183.49 20.7273 184.384 20.7273C184.982 20.7273 185.524 20.6439 186.009 20.4773C186.493 20.303 186.914 20.0492 187.27 19.7159C187.626 19.3826 187.895 18.9697 188.077 18.4773L191.918 18.9091C191.675 19.9242 191.213 20.8106 190.531 21.5682C189.857 22.3182 188.993 22.9015 187.94 23.3182C186.887 23.7273 185.683 23.9318 184.327 23.9318Z" fill="black"/>
</svg>
